<svg xmlns="http://www.w3.org/2000/svg" viewBox="0 0 84.85 81.4"><defs><style>.cls-1{fill:#259eb7;}.cls-2{fill:#143b50;opacity:0.62;}.cls-3{fill:#ebebeb;}</style></defs><title>check-dark</title><g id="Layer_2" data-name="Layer 2"><g id="Layer_1-2" data-name="Layer 1"><path class="cls-1" d="M0,19.62C0,10.85,6.92,5.39,13.07,2.06s54.7-2.1,60.61,0S84,12.41,84.74,18.21C85.28,22.35,83.8,64,82,68.87s-5.1,9.57-9.41,11.3-47.56,1.32-56.92.7S3.53,71.13,3,67.84,0,24.7,0,19.62Z"/><path class="cls-2" d="M15.73,45.91C15.83,48.36,33.26,64.8,38,65.37S68.59,30,67.36,27.28,56.9,18.91,54.54,19.74,40.34,45.51,37.48,45.2s-8.14-8.77-11.61-8S15.63,43.45,15.73,45.91Z"/><path class="cls-3" d="M15.73,43.7c.1,2.46,17.53,18.89,22.28,19.47s30.58-35.4,29.36-38.09S56.9,16.71,54.54,17.53,40.34,43.3,37.48,43s-8.14-8.77-11.61-8S15.63,41.25,15.73,43.7Z"/></g></g></svg>