<svg xmlns="http://www.w3.org/2000/svg" viewBox="0 0 152.46 35.9">
    <defs>
        <style>
            .cls-1{fill:#fff}
        </style>
    </defs>
    <g>
        <path class="cls-1" d="M124.37,14.42a5.21,5.21,0,1,0,5.21,5.2,5.2,5.2,0,0,0-5.21-5.2m0,7a1.84,1.84,0,1,1,1.84-1.84,1.84,1.84,0,0,1-1.84,1.84"/>
        <path class="cls-1" d="M139.75,14.74h-1.41a.9.9,0,0,0-.9.9v.13a3.09,3.09,0,0,0-2.11-1,3.91,3.91,0,0,0-.91.11,4.94,4.94,0,0,0-3.77,4.84.49.49,0,0,0,0,.12,4.95,4.95,0,0,0,3.76,4.73,5.39,5.39,0,0,0,.91.11,3,3,0,0,0,1.92-.85c0,1-.15,2.13-1.63,2.13-1,0-1.8-.91-2.52-.91s-1.42,1.22-1.42,2c0,.59,2.14,2,3.79,2a5.19,5.19,0,0,0,5.18-5.18V15.64a.9.9,0,0,0-.9-.9m-4,6.74a1.84,1.84,0,1,1,1.84-1.84,1.85,1.85,0,0,1-1.84,1.84"/>
        <path class="cls-1" d="M79.16,14.74H77.74a.89.89,0,0,0-.89.9v.13a3.09,3.09,0,0,0-2.11-1,3.91,3.91,0,0,0-.91.11,5,5,0,0,0,0,9.72,5.39,5.39,0,0,0,.91.11,3.06,3.06,0,0,0,2.11-1v.16a.9.9,0,0,0,.9.9h1.41a.9.9,0,0,0,.9-.9V15.64a.9.9,0,0,0-.9-.9m-4,6.72A1.84,1.84,0,1,1,77,19.62a1.84,1.84,0,0,1-1.84,1.84"/>
        <path class="cls-1" d="M118.47,22.37V23.8a.9.9,0,0,1-.91.9h-3.48a.9.9,0,0,1-.89-.72,1.11,1.11,0,0,1,0-.17V12a.94.94,0,0,1,.94-.94h1.71a.72.72,0,0,1,.72.72v9.45a.44.44,0,0,0,.44.44h.77a.72.72,0,0,1,.72.72"/>
        <path class="cls-1" d="M152.38,16.34l-5.72,12.28a.9.9,0,0,1-1.2.43l-1.39-.65a.9.9,0,0,1-.43-1.19l1.81-3.88-4-6.88a.92.92,0,0,1,.33-1.23l1.37-.79a.9.9,0,0,1,1.23.33l2.79,4.84,2.17-4.66a.91.91,0,0,1,1.2-.44l1.39.65a.89.89,0,0,1,.43,1.19"/>
        <path class="cls-1" d="M106.65,14.42a5.21,5.21,0,1,0,5.21,5.2,5.2,5.2,0,0,0-5.21-5.2m0,7a1.84,1.84,0,1,1,1.84-1.84,1.84,1.84,0,0,1-1.84,1.84"/>
        <path class="cls-1" d="M100.15,19.1v4.7a.9.9,0,0,1-.9.9H98a.89.89,0,0,1-.89-.9V19.73a1.85,1.85,0,0,0-3.7,0c0,.06,0,4.07,0,4.07a.9.9,0,0,1-.9.9H91.24a.89.89,0,0,1-.89-.9V15.64a.89.89,0,0,1,.89-.9H92.5a.9.9,0,0,1,.9.9V16a3.89,3.89,0,0,1,6.75,3.08"/>
        <path class="cls-1" d="M89.51,15.75c0,.72-.19,2.4-1.41,2.4-.76,0-.57-.3-1.35-.3S85.2,18.33,85.2,19V23.8a.9.9,0,0,1-.9.9H82.89a.9.9,0,0,1-.9-.9V15.64a.9.9,0,0,1,.9-.9H84.3a.9.9,0,0,1,.9.9v.06a3.08,3.08,0,0,1,2.26-1.12c1.43,0,2.05.6,2.05,1.17"/>
        <path class="cls-1" d="M67.5,21.51A13.39,13.39,0,0,1,65,22c-1.36-.09-1.94-.83-2-1.23a0,0,0,0,1,0,0c1,0,2.62,0,4.2,0,2.25,0,2-2.1,2-2.56,0-2.14-2.28-3.78-4.54-3.78a5.21,5.21,0,0,0-5.21,5.09,5.32,5.32,0,0,0,5.35,5.33c1.32,0,2.88-.05,3.63-.73a1,1,0,0,0,.44-.86c0-.72-.54-1.74-1.4-1.74m-2.77-4.27A1.8,1.8,0,0,1,66.51,19a.1.1,0,0,1-.09.11H63s0,0,0,0a1.81,1.81,0,0,1,1.78-1.81"/>
        <path class="cls-1" d="M59.32,22.53V23.8a.9.9,0,0,1-.9.9H50.27a.9.9,0,0,1-.9-.89V12.07a.9.9,0,0,1,.9-.89h1.58a.89.89,0,0,1,.9.89v9.1a.46.46,0,0,0,.46.46h5.21a.9.9,0,0,1,.9.9"/>
        <path class="cls-1" d="M29.3,6.61C25.6,2.91,21.12,0,18,0S10.3,2.91,6.61,6.61,0,14.78,0,17.91,2.91,25.6,6.61,29.3,14.78,35.9,18,35.9,25.65,33,29.34,29.34,35.9,21.13,36,18,33,10.3,29.3,6.61M23.65,27.79c-3.19,1.84-6.79,3-8.93,2.4S10,26.8,8.17,23.61s-3-6.77-2.42-9S9.12,10,12.31,8.15s6.78-3,9-2.42,4.65,3.37,6.49,6.56,3,6.78,2.46,9-3.39,4.7-6.58,6.55"/>
        <path class="cls-1" d="M24,22.53V23.8a.9.9,0,0,1-.9.9H14.91a.89.89,0,0,1-.89-.89V12.07a.89.89,0,0,1,.9-.89h1.57a.89.89,0,0,1,.9.89v9.1a.46.46,0,0,0,.46.46h5.21a.9.9,0,0,1,.9.9"/>
    </g>
</svg>
